P2
# sum_on_random.pgm
9 9
100
59  48  37  34  41  51  50  52  51 
43  44  41  40  44  54  53  48  41 
42  49  52  51  47  53  53  47  35 
50  52  46  56  53  61  53  43  30 
60  49  39  46  51  59  56  46  32 
55  45  29  40  41  50  47  46  43 
56  53  38  37  32  38  42  44  47 
55  58  49  48  36  37  41  46  50 
54  55  56  50  48  47  55  48  40
