P2
# random.pgm
9 9
10
8 8 2 1 8 5 5 6 6 
2 7 3 5 4 4 7 7 4 
3 2 9 4 4 9 8 2 3 
8 7 8 7 7 3 7 6 3 
9 1 5 3 9 7 7 4 3 
8 2 1 5 1 9 9 4 3 
8 2 9 1 6 0 2 5 9 
6 8 9 1 4 5 2 6 4 
5 7 4 8 6 5 7 9 2
